<svg xmlns="http://www.w3.org/2000/svg" width="64" height="64">
  <defs><linearGradient id="g" x1="0" y1="0" x2="1" y2="1">
    <stop offset="0" stop-color="#0F1E34"></stop><stop offset="1" stop-color="#0B1528"></stop></linearGradient></defs>
  <rect rx="12" width="64" height="64" fill="url(#g)"></rect>
  <path d="M34 16c-1 1-1 2-1 3s1 2 2 2 2-1 3-2 1-2 1-3-1-2-2-2-2 1-3 2zm-10 8c-3 4-3 9-1 12 2 4 5 6 8 6s5-2 7-2 5 2 8-2c-3-1-4-3-5-5 0-2 1-4 3-6-2 0-4 1-6 2-1-1-3-1-4-1-3 0-7-1-10-4z" fill="#CFE0FF"></path>
</svg>
